<svg xmlns="http://www.w3.org/2000/svg" width="85.477" height="89.112" viewBox="0 0 85.477 89.112"><defs><style>.a{fill:#ffd571;}.b{fill:#fff0ce;}.c{fill:#fff;}.d{fill:#3d4c6d;}</style></defs><rect class="a" width="54.933" height="53.514" transform="translate(11.784 0.759)"/><rect class="b" width="54.933" height="45.532" transform="translate(19.719 8.741)"/><path class="c" d="M461.8,1176.011l13.9,13.68s2.393,2.431,0,4.476-3.68.578-3.68.578l2.214,2.372h10.127v-21.153h-7.378l-5.548-8.037H459.271l-8.021,7.768a4.613,4.613,0,0,0,.6,4.616c1.74,2.212,5.294,0,5.294,0Z" transform="translate(-414.339 -1121.738)"/><path class="c" d="M387.916,1295.515a3.163,3.163,0,0,0-4.28-.177,3.162,3.162,0,0,0-4.457-4.457,3.163,3.163,0,0,0-.177-4.28h0a3.164,3.164,0,0,0-4.28-.176,3.163,3.163,0,0,0-.176-4.28h0a3.164,3.164,0,0,0-4.476,0l-1.891,1.891a3.164,3.164,0,0,0,0,4.475h0a3.163,3.163,0,0,0,4.28.177,3.163,3.163,0,0,0,.177,4.28h0a3.163,3.163,0,0,0,4.28.177,3.163,3.163,0,0,0,.176,4.28h0a3.163,3.163,0,0,0,4.28.177,3.164,3.164,0,0,0,4.652,4.28l1.891-1.891A3.165,3.165,0,0,0,387.916,1295.515Z" transform="translate(-345.662 -1214.77)"/><rect class="a" width="7.389" height="27.242" transform="translate(1.073 50.889)"/><rect class="c" width="7.195" height="27.242" transform="translate(8.268 50.889)"/><rect class="c" width="7.195" height="27.242" transform="translate(69.917 50.889)"/><rect class="a" width="7.95" height="27.242" transform="translate(77.014 50.889)"/><path class="b" d="M378.884,1204.86l-10.805-10.805-2.571-3.747-5.172,5.172s-2.83,2.311-5.294,0,0-5.294,0-5.294l3.787-3.786-10.083.15-6.549,4.314h-9.2v21.423h10.641a3.147,3.147,0,0,1,.692-1.462,3.163,3.163,0,0,1-4.28-.177h0a3.164,3.164,0,0,1,0-4.475l1.891-1.891a3.165,3.165,0,0,1,4.476,0h0a3.163,3.163,0,0,1,.177,4.28,3.163,3.163,0,0,1,4.28.177h0a3.162,3.162,0,0,1,.64,3.548h1.081l.017.021a3.157,3.157,0,0,1,3.437,4.241l.329.406a3.161,3.161,0,0,1,3.8,4.692l.859,1.06a3.164,3.164,0,0,0,4.733-4.181l.679.679a3.165,3.165,0,0,0,4.476,0h0a3.163,3.163,0,0,0,.349-4.057l.021-.012.72.72a3.165,3.165,0,0,0,4.476,0h0a3.165,3.165,0,0,0,0-4.476l-1.345-1.345.058-.121a3.165,3.165,0,0,0,3.68-.578h0A3.165,3.165,0,0,0,378.884,1204.86Z" transform="translate(-317.531 -1136.907)"/><g transform="translate(0 0)"><g transform="translate(7.389 45.116)"><path class="d" d="M448.983,1177.551a4.814,4.814,0,0,1-3.406-8.22l6.151-6.151a4.252,4.252,0,0,1,3.026-1.253h9.524a4.277,4.277,0,0,1,3.533,1.865l4.217,6.172h6.812a1.073,1.073,0,0,1,0,2.146h-7.378a1.073,1.073,0,0,1-.886-.468l-4.536-6.64a2.132,2.132,0,0,0-1.762-.93h-9.524a2.12,2.12,0,0,0-1.508.625l-6.15,6.151a2.67,2.67,0,0,0,3.777,3.777l5.172-5.172a1.073,1.073,0,0,1,.759-.314h5.987a1.073,1.073,0,1,1,0,2.146h-5.542l-4.858,4.858A4.8,4.8,0,0,1,448.983,1177.551Z" transform="translate(-416.216 -1161.927)"/><path class="d" d="M365.5,1285.582a4.236,4.236,0,0,1-3-7.232l1.892-1.891a4.238,4.238,0,1,1,5.993,5.993l-1.891,1.891A4.226,4.226,0,0,1,365.5,1285.582Zm1.891-8.219a2.078,2.078,0,0,0-1.479.613l-1.891,1.891a2.092,2.092,0,0,0,2.958,2.958l1.891-1.891h0a2.092,2.092,0,0,0-1.479-3.571Z" transform="translate(-348.134 -1254.959)"/><path class="d" d="M390.414,1310.517a4.238,4.238,0,0,1-3-7.234l1.891-1.891a4.238,4.238,0,1,1,5.993,5.993l-1.891,1.891A4.209,4.209,0,0,1,390.414,1310.517Zm1.892-8.22a2.086,2.086,0,0,0-1.479.612l-1.891,1.891a2.092,2.092,0,0,0,2.958,2.958l1.891-1.891a2.091,2.091,0,0,0-1.479-3.57Z" transform="translate(-368.593 -1275.435)"/><path class="d" d="M415.348,1335.431a4.236,4.236,0,0,1-3-7.232l1.891-1.891a4.238,4.238,0,1,1,5.993,5.993l-1.891,1.891A4.225,4.225,0,0,1,415.348,1335.431Zm1.891-8.219a2.078,2.078,0,0,0-1.479.613l-1.891,1.891a2.092,2.092,0,1,0,2.958,2.958l1.891-1.891h0a2.092,2.092,0,0,0-1.479-3.571Z" transform="translate(-389.07 -1295.894)"/><path class="d" d="M440.263,1360.367a4.238,4.238,0,0,1-3-7.234l1.891-1.891a4.238,4.238,0,1,1,5.993,5.993l-1.891,1.892A4.21,4.21,0,0,1,440.263,1360.367Zm1.891-8.22a2.086,2.086,0,0,0-1.479.612l-1.891,1.892a2.092,2.092,0,0,0,2.958,2.958l1.891-1.892a2.091,2.091,0,0,0-1.479-3.57Z" transform="translate(-409.528 -1316.371)"/><g transform="translate(33.575 10.91)"><path class="d" d="M480.385,1338.66a4.224,4.224,0,0,1-3-1.239l-.916-.916a1.073,1.073,0,0,1,1.517-1.517l.916.916a2.092,2.092,0,1,0,2.958-2.958L475.919,1327a1.073,1.073,0,0,1,1.517-1.517l5.945,5.945a4.236,4.236,0,0,1-3,7.232Z" transform="translate(-475.605 -1306.889)"/><path class="d" d="M507.134,1315.562a4.209,4.209,0,0,1-3-1.241l-1.891-1.891a1.073,1.073,0,1,1,1.517-1.517l1.892,1.891a2.092,2.092,0,0,0,2.958-2.958l-6.711-6.711a1.073,1.073,0,1,1,1.517-1.517l6.711,6.711a4.238,4.238,0,0,1-3,7.234Z" transform="translate(-496.942 -1287.29)"/><path class="d" d="M539.836,1318.968a4.225,4.225,0,0,1-3-1.239l-1.891-1.891a1.073,1.073,0,0,1,1.518-1.517l1.891,1.892a2.092,2.092,0,0,0,2.958-2.958l-1.891-1.891a1.073,1.073,0,0,1,1.517-1.517l1.891,1.891a4.236,4.236,0,0,1-3,7.232Z" transform="translate(-524.078 -1294.046)"/><path class="d" d="M532.613,1241.341a4.224,4.224,0,0,1-3-1.239l-6.068-6.068a1.073,1.073,0,0,1,1.517-1.517l6.068,6.068a2.092,2.092,0,0,0,2.959-2.958l-10.854-10.854a1.073,1.073,0,0,1,1.518-1.517l10.854,10.854a4.236,4.236,0,0,1-3,7.232Z" transform="translate(-514.462 -1222.941)"/></g><path class="d" d="M337.268,1187.008h-9.2a1.073,1.073,0,0,1,0-2.146h8.756l1.531-1.531a9.951,9.951,0,0,1,7.083-2.934H353.9a1.073,1.073,0,1,1,0,2.146h-8.464a7.819,7.819,0,0,0-5.565,2.306l-1.845,1.845A1.073,1.073,0,0,1,337.268,1187.008Z" transform="translate(-319.993 -1177.095)"/><path class="d" d="M331.944,1327.315h-3.877a1.073,1.073,0,1,1,0-2.146h3.877a1.073,1.073,0,1,1,0,2.146Z" transform="translate(-319.993 -1295.979)"/><path class="d" d="M602.843,1327.315h-6.6a1.073,1.073,0,1,1,0-2.146h6.6a1.073,1.073,0,0,1,0,2.146Z" transform="translate(-540.218 -1295.979)"/><path class="d" d="M295.918,1217.6h-7a1.073,1.073,0,0,1-1.073-1.073v-27.242a1.073,1.073,0,0,1,1.073-1.073h7a1.073,1.073,0,0,1,1.073,1.073v27.242A1.073,1.073,0,0,1,295.918,1217.6Zm-5.928-2.146h4.855v-25.1H289.99Z" transform="translate(-287.844 -1183.513)"/><path class="d" d="M640.133,1217.6h-7a1.073,1.073,0,0,1-1.073-1.073v-27.242a1.073,1.073,0,0,1,1.073-1.073h7a1.073,1.073,0,0,1,1.073,1.073v27.242A1.073,1.073,0,0,1,640.133,1217.6Zm-5.928-2.146h4.855v-25.1H634.2Z" transform="translate(-570.508 -1183.513)"/></g><path class="d" d="M254.983,1190.359h-7.389a1.073,1.073,0,0,1,0-2.146h7.389a1.073,1.073,0,0,1,0,2.146Z" transform="translate(-246.521 -1138.396)"/><path class="d" d="M254.983,1342.7h-7.389a1.073,1.073,0,1,1,0-2.146h7.389a1.073,1.073,0,0,1,0,2.146Z" transform="translate(-246.521 -1263.5)"/><path class="d" d="M679.671,1190.359h-7.389a1.073,1.073,0,1,1,0-2.146h7.389a1.073,1.073,0,0,1,0,2.146Z" transform="translate(-595.268 -1138.396)"/><path class="d" d="M679.671,1342.7h-7.389a1.073,1.073,0,1,1,0-2.146h7.389a1.073,1.073,0,0,1,0,2.146Z" transform="translate(-595.268 -1263.5)"/><path class="d" d="M406.8,991.888a1.073,1.073,0,0,1-1.073-1.073V954.654H352.944v36.162a1.073,1.073,0,0,1-2.146,0V953.581a1.073,1.073,0,0,1,1.073-1.073H406.8a1.073,1.073,0,0,1,1.073,1.073v37.235A1.073,1.073,0,0,1,406.8,991.888Z" transform="translate(-332.152 -944.84)"/><path class="d" d="M307.492,956.673a1.073,1.073,0,0,1-1.073-1.073V910.7a1.073,1.073,0,0,1,1.073-1.073h54.933A1.073,1.073,0,0,1,363.5,910.7v3.387a1.073,1.073,0,1,1-2.146,0V911.77H308.565V955.6A1.073,1.073,0,0,1,307.492,956.673Z" transform="translate(-295.708 -909.624)"/><g transform="translate(25.62 18.544)"><path class="d" d="M411.471,1015.471h-20.6a1.073,1.073,0,0,1,0-2.146h20.6a1.073,1.073,0,1,1,0,2.146Z" transform="translate(-389.796 -1013.325)"/></g><g transform="translate(25.62 24.826)"><path class="d" d="M405.988,1050.6H390.869a1.073,1.073,0,1,1,0-2.146h15.119a1.073,1.073,0,1,1,0,2.146Z" transform="translate(-389.796 -1048.456)"/></g><g transform="translate(25.62 31.107)"><path class="d" d="M431.185,1085.731H390.869a1.073,1.073,0,0,1,0-2.146h40.316a1.073,1.073,0,1,1,0,2.146Z" transform="translate(-389.796 -1083.585)"/></g><g transform="translate(25.62 37.389)"><path class="d" d="M431.185,1120.862H390.869a1.073,1.073,0,1,1,0-2.146h40.316a1.073,1.073,0,1,1,0,2.146Z" transform="translate(-389.796 -1118.716)"/></g></g><path class="d" d="M337.268,1187.008h-9.2a1.073,1.073,0,0,1,0-2.146h8.756l1.531-1.531a9.951,9.951,0,0,1,7.083-2.934H353.9a1.073,1.073,0,1,1,0,2.146h-8.464a7.819,7.819,0,0,0-5.565,2.306l-1.845,1.845A1.073,1.073,0,0,1,337.268,1187.008Z" transform="translate(-312.604 -1131.979)"/></svg>