<svg xmlns="http://www.w3.org/2000/svg" width="48.14" height="48.14" viewBox="0 0 48.14 48.14"><defs><style>.cls-1{fill:#032dc1;}</style></defs><g id="Layer_2" data-name="Layer 2"><g id="instagram"><path class="cls-1" d="M23.47,0c-6,0-6.84,0-9.33.14A17.86,17.86,0,0,0,8.3,1.26,11.88,11.88,0,0,0,4,4,11.88,11.88,0,0,0,1.26,8.3,17.63,17.63,0,0,0,.15,14.14C0,16.71,0,17.53,0,24.07S0,31.42.15,34a17.63,17.63,0,0,0,1.11,5.84A11.83,11.83,0,0,0,4,44.1,11.85,11.85,0,0,0,8.3,46.87,17.6,17.6,0,0,0,14.14,48c2.57.12,3.39.15,9.93.15s7.35,0,9.92-.15a17.6,17.6,0,0,0,5.84-1.12,12.21,12.21,0,0,0,7-7A17.6,17.6,0,0,0,48,34c.11-2.49.14-3.33.15-9.33V23.47c0-6,0-6.84-.15-9.33A17.6,17.6,0,0,0,46.87,8.3,11.85,11.85,0,0,0,44.1,4a11.83,11.83,0,0,0-4.27-2.78A17.86,17.86,0,0,0,34,.14C31.5,0,30.66,0,24.66,0ZM39.8,11.22a2.89,2.89,0,1,1-2.89-2.89,2.89,2.89,0,0,1,2.89,2.89ZM24.07,32.09a8,8,0,1,1,8-8,8,8,0,0,1-8,8Zm0-20.38A12.36,12.36,0,1,0,36.43,24.07,12.36,12.36,0,0,0,24.07,11.71Zm0-7.37c6.42,0,7.19,0,9.72.14a13.12,13.12,0,0,1,4.47.83A7.23,7.23,0,0,1,41,7.11a7.51,7.51,0,0,1,1.8,2.76,13.43,13.43,0,0,1,.83,4.47c.11,2.54.14,3.3.14,9.73s0,7.18-.14,9.72a13.37,13.37,0,0,1-.83,4.47,8,8,0,0,1-4.57,4.57,13.37,13.37,0,0,1-4.47.83c-2.53.11-3.3.14-9.72.14s-7.19,0-9.73-.14a13.43,13.43,0,0,1-4.47-.83A7.51,7.51,0,0,1,7.11,41a7.23,7.23,0,0,1-1.8-2.77,13.12,13.12,0,0,1-.83-4.47c-.12-2.54-.14-3.3-.14-9.72s0-7.19.14-9.73a13.17,13.17,0,0,1,.83-4.47,7.26,7.26,0,0,1,1.8-2.76,7.26,7.26,0,0,1,2.76-1.8,13.17,13.17,0,0,1,4.47-.83c2.54-.12,3.3-.14,9.73-.14Z"/></g></g></svg>