<svg xmlns="http://www.w3.org/2000/svg" width="170" height="137.619" viewBox="0 0 170 137.619"><defs><style>.a{isolation:isolate;}.b{fill:#1c1d21;}.c,.e{fill:none;}.c{stroke:#60a3fc;stroke-width:4px;}.d{stroke:none;}</style></defs><g class="a" transform="translate(-18.118 -71.341)"><path class="b" d="M222.812,120.694c0,21.833,18.071,39.533,40.362,39.533s40.363-17.7,40.363-39.533a38.927,38.927,0,0,0-.757-7.647H254.44v17.009h29.234c-3.5,8.116-10.94,13.229-20.5,13.229a22.6,22.6,0,1,1,0-45.182,23.124,23.124,0,0,1,20.461,12.157l16.985-4.787c-5.717-13.316-18.842-24.313-37.446-24.313-22.292,0-40.363,17.7-40.363,39.533" transform="translate(-129.436 7.027)"/><path class="b" d="M20.258,81.161,20.2,160.227H43.852V132.24l20.354,27.987h26.98l-30.829-39.6L89.883,81.249H64.206L43.852,109.161v-28Z" transform="translate(14.137 7.027)"/><g transform="translate(18.118 194.233)"><path class="b" d="M21.79,383.524h6.232v.761c-1.481.185-1.707.288-1.707,2.016v3.455a4.278,4.278,0,0,0,1.6-1.09,33.649,33.649,0,0,0,2.92-3.27c.494-.637.37-.946-.576-1.07l-.391-.041v-.761h5.389v.761a4.531,4.531,0,0,0-3.476,1.687c-.8.843-1.81,1.872-2.715,2.858,1.3,1.81,2.9,4.011,4.484,6.006a2.5,2.5,0,0,0,2.077,1.3v.761H31.539c-.864-1.172-2.674-3.661-4.134-5.738-.432-.617-.761-.741-1.09-.679v3.641c0,1.748.144,1.81,1.728,2.016v.761H21.79v-.761c1.542-.165,1.748-.267,1.748-2.016V386.3c0-1.728-.206-1.871-1.748-2.016Z" transform="translate(-21.79 -382.475)"/><path class="b" d="M65.5,395.149v-.7c.9-.144.966-.288.966-1.4v-3.62c0-1.583-.658-2.118-1.46-2.118a2.105,2.105,0,0,0-1.5.6v5.142c0,1.11.1,1.255,1.049,1.4v.7h-4.9v-.7c1.008-.123,1.193-.185,1.193-1.481v-9.523c0-.946-.124-1.172-1.275-1.358v-.658a20.933,20.933,0,0,0,3.928-.7v6.376a4.243,4.243,0,0,1,2.777-1.337c1.79,0,2.859,1.173,2.859,3.435v3.764c0,1.3.144,1.316,1.131,1.481v.7Z" transform="translate(-45.383 -380.731)"/><path class="b" d="M98.267,401.511a4.7,4.7,0,0,1-3.764,2.263,4.2,4.2,0,0,1-4.319-4.484,5.406,5.406,0,0,1,1.543-3.7,4.606,4.606,0,0,1,3.208-1.44,3.374,3.374,0,0,1,3.394,3.353c0,.35-.021.7-.267.761-.391.1-3.291.247-5.286.329.082,2.18,1.3,3.291,2.777,3.291a3.544,3.544,0,0,0,2.344-.926Zm-3.743-6.52c-.823,0-1.522.966-1.645,2.591l2.489-.062c.288-.021.412-.062.412-.411C95.8,396.082,95.326,394.992,94.524,394.992Z" transform="translate(-64.497 -389.109)"/><path class="b" d="M119.488,403.459h-5.43v-.7c1.09-.123,1.193-.226,1.193-1.46v-4.5c0-1.028-.082-1.132-1.049-1.337v-.638a19.766,19.766,0,0,0,3.7-.782v2.222c.925-1.419,1.666-2.181,2.509-2.181a1.251,1.251,0,0,1,1.337,1.234,2,2,0,0,1-1.049,1.748.565.565,0,0,1-.638-.1c-.35-.288-.617-.617-.967-.617-.308,0-.822.268-1.193,1.049V401.3c0,1.234.144,1.3,1.584,1.46Z" transform="translate(-79.405 -389.041)"/><path class="b" d="M145.562,395.149c-1.6-.021-3,0-3.764.041-.062-.1-2.571-3.949-2.653-4.093-.185-.247-.308-.35-.411-.37a.632.632,0,0,0-.185-.021v2.2c0,1.337.1,1.378,1.213,1.543v.7H134.7v-.7c1.09-.165,1.193-.205,1.193-1.543v-9.379c0-1.11-.1-1.214-1.193-1.46v-.637a18.119,18.119,0,0,0,3.846-.7v9.379a2.664,2.664,0,0,0,1.152-.8,11.839,11.839,0,0,0,1.5-1.831c.247-.453-.082-.658-.844-.781v-.679l4.4-.165v.658a3.991,3.991,0,0,0-2.653,1.234c-.329.329-.782.884-1.357,1.543.514.8,2.448,3.414,3.023,4.113a2.279,2.279,0,0,0,1.79,1.049Z" transform="translate(-92.295 -380.731)"/><path class="b" d="M168.059,395.149v-.7c.9-.144.967-.288.967-1.4v-3.62c0-1.583-.658-2.118-1.46-2.118a2.1,2.1,0,0,0-1.5.6v5.142c0,1.11.1,1.255,1.049,1.4v.7h-4.9v-.7c1.008-.123,1.193-.185,1.193-1.481v-9.523c0-.946-.123-1.172-1.275-1.358v-.658a20.938,20.938,0,0,0,3.928-.7v6.376a4.243,4.243,0,0,1,2.777-1.337c1.789,0,2.859,1.173,2.859,3.435v3.764c0,1.3.144,1.316,1.131,1.481v.7Z" transform="translate(-109.426 -380.731)"/><path class="b" d="M200.83,401.511a4.7,4.7,0,0,1-3.764,2.263,4.2,4.2,0,0,1-4.319-4.484,5.407,5.407,0,0,1,1.542-3.7,4.607,4.607,0,0,1,3.209-1.44,3.373,3.373,0,0,1,3.394,3.353c0,.35-.021.7-.267.761-.391.1-3.291.247-5.286.329.082,2.18,1.3,3.291,2.777,3.291a3.545,3.545,0,0,0,2.345-.926Zm-3.743-6.52c-.823,0-1.522.966-1.646,2.591l2.489-.062c.288-.021.411-.062.411-.411C198.362,396.082,197.888,394.992,197.087,394.992Z" transform="translate(-128.54 -389.109)"/><path class="b" d="M222.051,403.459h-5.43v-.7c1.09-.123,1.193-.226,1.193-1.46v-4.5c0-1.028-.082-1.132-1.049-1.337v-.638a19.758,19.758,0,0,0,3.7-.782v2.222c.926-1.419,1.666-2.181,2.509-2.181a1.251,1.251,0,0,1,1.337,1.234,2,2,0,0,1-1.049,1.748.565.565,0,0,1-.638-.1c-.349-.288-.617-.617-.966-.617-.309,0-.823.268-1.193,1.049V401.3c0,1.234.144,1.3,1.584,1.46Z" transform="translate(-143.448 -389.041)"/><path class="b" d="M258.656,390.78c-1.172.205-1.316.288-1.316,1.686v1.584a11.6,11.6,0,0,0,.124,2,31.392,31.392,0,0,1-4.977.678c-4.834,0-7.61-2.941-7.61-7.013,0-4.628,3.764-6.952,8.145-6.952a32.727,32.727,0,0,1,4.155.473c.041.9.205,2.468.35,3.6l-.8.144c-.494-1.748-1.255-2.632-2.53-3.065a6.2,6.2,0,0,0-1.748-.247c-2.489,0-4.36,2.16-4.36,5.7,0,3.62,1.275,6.479,4.648,6.479a2.674,2.674,0,0,0,1.316-.288c.308-.185.473-.535.473-1.172v-1.81c0-1.439-.288-1.584-2.016-1.789v-.761h6.15Z" transform="translate(-161.091 -381.997)"/><path class="b" d="M290.761,403.774a1.9,1.9,0,0,1-1.275-.432,2.068,2.068,0,0,1-.535-.761,7.62,7.62,0,0,1-2.181,1.193,2.7,2.7,0,0,1-2.8-2.653c0-1.09.493-1.584,1.583-2.016a17.253,17.253,0,0,0,3.311-1.358v-.9c0-1.069-.391-1.666-1.275-1.666a1.013,1.013,0,0,0-.823.411,3.941,3.941,0,0,0-.494,1.358.813.813,0,0,1-.884.7,1.257,1.257,0,0,1-1.214-1.07c0-.37.247-.638.72-.967a10.139,10.139,0,0,1,3.291-1.461,3.613,3.613,0,0,1,2.118.6,2.788,2.788,0,0,1,1.131,2.53v3.558c0,.987.329,1.234.658,1.234a1.55,1.55,0,0,0,.638-.164l.226.7Zm-1.892-5.183c-.37.205-.741.411-1.152.638a1.486,1.486,0,0,0-1.008,1.4,1.4,1.4,0,0,0,1.255,1.564,1.159,1.159,0,0,0,.9-.329Z" transform="translate(-185.505 -389.109)"/><path class="b" d="M314.1,403.459h-5.43v-.7c1.09-.123,1.193-.226,1.193-1.46v-4.5c0-1.028-.082-1.132-1.049-1.337v-.638a19.757,19.757,0,0,0,3.7-.782v2.222c.925-1.419,1.666-2.181,2.509-2.181a1.251,1.251,0,0,1,1.337,1.234,2,2,0,0,1-1.049,1.748.565.565,0,0,1-.638-.1c-.35-.288-.617-.617-.967-.617-.308,0-.823.268-1.193,1.049V401.3c0,1.234.144,1.3,1.584,1.46Z" transform="translate(-200.925 -389.041)"/><path class="b" d="M338,401.532a4.741,4.741,0,0,1-3.578,2.242,4.344,4.344,0,0,1-4.5-4.422,4.911,4.911,0,0,1,2.1-3.928,6.009,6.009,0,0,1,3.579-1.275,3.222,3.222,0,0,1,1.81.494.862.862,0,0,1,.391.761,1.307,1.307,0,0,1-.925,1.152.633.633,0,0,1-.453-.226,3.661,3.661,0,0,0-2.139-1.069c-.8,0-1.769.782-1.769,3,0,2.735,2,3.62,2.879,3.62a3.065,3.065,0,0,0,2.2-.864Z" transform="translate(-214.192 -389.109)"/><path class="b" d="M352.64,396.552v-.7c1.11-.144,1.234-.227,1.234-1.686v-4.011c0-1.378-.1-1.461-1.07-1.584v-.679a22.428,22.428,0,0,0,3.723-.74v7.014c0,1.4.082,1.543,1.275,1.686v.7Zm2.406-10.654a1.5,1.5,0,0,1-1.481-1.461,1.474,1.474,0,0,1,1.5-1.46,1.444,1.444,0,0,1,1.481,1.46A1.475,1.475,0,0,1,355.046,385.9Z" transform="translate(-228.382 -382.134)"/><path class="b" d="M375.088,403.774a1.894,1.894,0,0,1-1.275-.432,2.071,2.071,0,0,1-.535-.761,7.623,7.623,0,0,1-2.181,1.193,2.7,2.7,0,0,1-2.8-2.653c0-1.09.494-1.584,1.584-2.016a17.262,17.262,0,0,0,3.311-1.358v-.9c0-1.069-.391-1.666-1.276-1.666a1.013,1.013,0,0,0-.823.411,3.931,3.931,0,0,0-.493,1.358.813.813,0,0,1-.884.7,1.257,1.257,0,0,1-1.214-1.07c0-.37.247-.638.72-.967a10.132,10.132,0,0,1,3.291-1.461,3.613,3.613,0,0,1,2.119.6,2.788,2.788,0,0,1,1.131,2.53v3.558c0,.987.329,1.234.658,1.234a1.549,1.549,0,0,0,.637-.164l.226.7Zm-1.892-5.183c-.37.205-.741.411-1.152.638a1.486,1.486,0,0,0-1.008,1.4,1.4,1.4,0,0,0,1.255,1.564,1.16,1.16,0,0,0,.9-.329Z" transform="translate(-238.161 -389.109)"/><path class="b" d="M412.226,399.064c-.128.686-.575,2.378-.718,2.809h-7.916v-.59c1.4-.1,1.532-.208,1.532-1.548v-6.081c0-1.34-.16-1.468-1.356-1.564v-.59h4.979v.59c-1.245.112-1.4.224-1.4,1.564v6.193c0,.878.032,1.276.91,1.292.032.016.766.016.829.016a1.609,1.609,0,0,0,1.532-.622,6.662,6.662,0,0,0,1.005-1.66Z" transform="translate(-260.198 -387.455)"/><path class="b" d="M435.9,399.064c-.128.686-.575,2.378-.718,2.809h-7.916v-.59c1.4-.1,1.532-.208,1.532-1.548v-6.081c0-1.34-.16-1.468-1.356-1.564v-.59h4.979v.59c-1.245.112-1.4.224-1.4,1.564v6.193c0,.878.032,1.276.91,1.292.032.016.766.016.83.016a1.61,1.61,0,0,0,1.532-.622,6.672,6.672,0,0,0,1.005-1.66Z" transform="translate(-274.979 -387.455)"/><path class="b" d="M455.934,391.5a5.24,5.24,0,0,1,2.873.654,2.674,2.674,0,0,1,1.245,2.394c0,2.314-1.963,3.288-3.671,3.3a3.978,3.978,0,0,1-.479-.032l-.926-.24v2.171c0,1.341.112,1.4,1.5,1.532v.59H451.4v-.59c1.2-.144,1.356-.192,1.356-1.532v-6.1c0-1.34-.16-1.484-1.356-1.564v-.59Zm-.958,5.411a2.045,2.045,0,0,0,.846.159c.734,0,1.931-.431,1.931-2.538,0-1.788-.973-2.378-2.011-2.378a.974.974,0,0,0-.622.16.614.614,0,0,0-.144.495Z" transform="translate(-290.052 -387.455)"/></g><g class="c" transform="translate(18.118 71.341)"><rect class="d" width="170" height="113"/><rect class="e" x="2" y="2" width="166" height="109"/></g></g></svg>