<svg xmlns="http://www.w3.org/2000/svg" width="947.85" height="796.61" viewBox="0 0 947.85 796.61"><path d="M411.76,292.12c0,152.29,123,275.73,274.78,275.73S961.32,444.4,961.32,292.12a278.29,278.29,0,0,0-5.16-53.34H627.07V357.42h199c-23.81,56.61-74.47,92.27-139.55,92.27-86.72,0-157-70.55-157-157.57s70.3-157.57,157-157.57c58.15-.26,111.71,32.34,139.29,84.8L926.68,163.9C901.57,106.66,813.2,16.39,686.54,16.39c-151.75,0-274.77,123.45-274.77,275.72" transform="translate(-13.47 -16.39)"/><path d="M14.21,20.78,13.8,563.33h161V371.28L313.39,563.33H497.06L287.19,291.62l201-270.25H313.4L174.83,212.91V20.78Z" transform="translate(-13.47 -16.39)"/><path d="M13.47,602.85H961v88.24H13.47Z" transform="translate(-13.47 -16.39)" fill="#032dc1"/><path d="M13.68,736.17H48.41v4.28c-8.25,1-9.51,1.62-9.51,11.33v19.4a23.93,23.93,0,0,0,8.94-6.13,188.11,188.11,0,0,0,16.28-18.37c2.75-3.57,2.06-5.31-3.21-6l-2.18-.23v-4.27h30v4.28c-7.91,1-12.16,1.62-19.38,9.48C64.92,754.66,59.3,760.44,54.26,766c7.22,10.17,16.16,22.53,25,33.74,4.24,5.54,5.73,6.35,11.58,7.27v4.28H68c-4.82-6.58-14.9-20.56-23-32.23-2.41-3.47-4.25-4.16-6.08-3.81v20.44c0,9.82.8,10.17,9.62,11.32v4.28H13.68V807c8.59-.92,9.74-1.5,9.74-11.32v-43.9c0-9.7-1.15-10.51-9.74-11.32Z" transform="translate(-13.47 -16.39)"/><path d="M125.78,811.27v-3.93c5.05-.81,5.39-1.62,5.39-7.86V779.15c0-8.9-3.67-11.9-8.14-11.9a11.67,11.67,0,0,0-8.36,3.35v28.88c0,6.24.57,7,5.85,7.86v3.92H93.23v-3.92c5.61-.69,6.65-1,6.65-8.32v-53.5c0-5.32-.69-6.58-7.11-7.63v-3.68a115.55,115.55,0,0,0,21.89-3.93v35.81a23.6,23.6,0,0,1,15.48-7.51c10,0,15.93,6.59,15.93,19.3V799c0,7.28.81,7.41,6.31,8.32v3.93Z" transform="translate(-13.47 -16.39)"/><path d="M201.9,800c-7,10.39-16.17,12.71-21,12.71-15.36,0-24.07-11.44-24.07-25.19a30.47,30.47,0,0,1,8.6-20.8,25.6,25.6,0,0,1,17.88-8.09,18.89,18.89,0,0,1,18.92,18.84c0,2-.12,3.93-1.49,4.27-2.18.58-18.35,1.39-29.47,1.85.46,12.25,7.23,18.48,15.48,18.48a19.71,19.71,0,0,0,13.07-5.19ZM181,763.31c-4.58,0-8.48,5.43-9.17,14.56l13.87-.35c1.61-.12,2.3-.35,2.3-2.3C188.14,769.44,185.51,763.31,181,763.31Z" transform="translate(-13.47 -16.39)"/><path d="M237.07,811.27H206.82v-3.93c6.08-.69,6.65-1.28,6.65-8.2V773.83c0-5.78-.46-6.36-5.85-7.51v-3.57a109.38,109.38,0,0,0,20.63-4.4v12.48c5.16-8,9.29-12.25,14-12.25a7,7,0,0,1,7.43,6.53c0,.14,0,.27,0,.4a11.27,11.27,0,0,1-5.85,9.83,3.14,3.14,0,0,1-3.55-.59c-1.94-1.61-3.43-3.46-5.38-3.46-1.72,0-4.59,1.5-6.65,5.89v22c0,6.93.8,7.28,8.83,8.2Z" transform="translate(-13.47 -16.39)"/><path d="M310.56,811.27c-8.94-.12-16.74,0-21,.23-.34-.58-14.33-22.18-14.79-23-1-1.39-1.72-2-2.28-2.08a3.55,3.55,0,0,0-1-.12v12.36c0,7.51.57,7.74,6.77,8.67v3.92H250v-3.92c6.08-.93,6.64-1.16,6.64-8.67V746c0-6.23-.57-6.81-6.64-8.2v-3.58a100.12,100.12,0,0,0,21.43-3.92V783a14.88,14.88,0,0,0,6.43-4.51,66.68,66.68,0,0,0,8.36-10.29c1.38-2.55-.46-3.69-4.7-4.38V760l24.54-.92v3.69c-7.11,1.16-10.78,2.66-14.79,6.94-1.84,1.84-4.36,5-7.57,8.66,2.87,4.5,13.65,19.18,16.85,23.11,3.67,4.27,5.05,5.2,10,5.89Z" transform="translate(-13.47 -16.39)"/><path d="M340.47,811.27v-3.93c5-.81,5.39-1.62,5.39-7.86V779.15c0-8.9-3.67-11.9-8.14-11.9a11.7,11.7,0,0,0-8.36,3.35v28.88c0,6.24.58,7,5.85,7.86v3.92H307.92v-3.92c5.62-.69,6.64-1,6.64-8.32v-53.5c0-5.32-.68-6.58-7.09-7.63v-3.68a115.26,115.26,0,0,0,21.89-3.93v35.81a23.6,23.6,0,0,1,15.48-7.51c10,0,15.93,6.59,15.93,19.3V799c0,7.28.81,7.41,6.31,8.32v3.93Z" transform="translate(-13.47 -16.39)"/><path d="M416.59,800c-7,10.39-16.17,12.71-21,12.71-15.36,0-24.07-11.44-24.07-25.19a30.5,30.5,0,0,1,8.59-20.8A25.64,25.64,0,0,1,398,758.58a18.87,18.87,0,0,1,18.91,18.84h0c0,2-.11,3.93-1.49,4.27-2.17.58-18.34,1.39-29.46,1.85.46,12.25,7.22,18.48,15.48,18.48a19.71,19.71,0,0,0,13.07-5.19Zm-20.87-36.64c-4.59,0-8.48,5.43-9.17,14.56l13.87-.35c1.6-.12,2.28-.35,2.28-2.3C402.83,769.44,400.19,763.31,395.72,763.31Z" transform="translate(-13.47 -16.39)"/><path d="M451.77,811.27H421.51v-3.93c6.08-.69,6.65-1.28,6.65-8.2V773.83c0-5.78-.46-6.36-5.85-7.51v-3.57a109.38,109.38,0,0,0,20.63-4.4v12.48c5.16-8,9.29-12.25,14-12.25a7,7,0,0,1,7.44,6.53c0,.13,0,.27,0,.4a11.27,11.27,0,0,1-5.85,9.83,3.14,3.14,0,0,1-3.55-.59c-1.94-1.61-3.43-3.46-5.38-3.46-1.72,0-4.59,1.5-6.65,5.89v22c0,6.93.8,7.28,8.82,8.2Z" transform="translate(-13.47 -16.39)"/><path d="M557.46,779.61c-6.54,1.16-7.35,1.62-7.35,9.47V798a65.69,65.69,0,0,0,.69,11.21c-5.85,1-18.46,3.81-27.74,3.81-26.94,0-42.42-16.52-42.42-39.39,0-26,21-39.06,45.4-39.06a180.24,180.24,0,0,1,23.16,2.65c.22,5.09,1.14,13.87,1.94,20.22l-4.47.81c-2.75-9.82-7-14.79-14.1-17.21a34.13,34.13,0,0,0-9.74-1.39c-13.87,0-24.3,12.13-24.3,32,0,20.34,7.1,36.4,25.91,36.4a14.86,14.86,0,0,0,7.34-1.62c1.72-1,2.64-3,2.64-6.59V789.66c0-8.09-1.6-8.9-11.23-10v-4.28h34.27Z" transform="translate(-13.47 -16.39)"/><path d="M600.32,812.65a10.49,10.49,0,0,1-7.11-2.42,11.51,11.51,0,0,1-3-4.28c-4.36,2.89-10,6.7-12.16,6.7A15.13,15.13,0,0,1,562.49,798v-.25c0-6.13,2.75-8.9,8.82-11.32,6.77-2.55,15.82-5.32,18.46-7.63v-5.08c0-6-2.18-9.36-7.11-9.36a5.66,5.66,0,0,0-4.59,2.3,22.33,22.33,0,0,0-2.75,7.63,4.54,4.54,0,0,1-4.93,3.93,7,7,0,0,1-6.76-6c0-2.08,1.37-3.58,4-5.43a56.2,56.2,0,0,1,18.34-8.2,20,20,0,0,1,11.81,3.35c4.93,3.47,6.31,8.32,6.31,14.21v20c0,5.54,1.83,6.93,3.66,6.93a8.58,8.58,0,0,0,3.55-.92l1.27,3.92Zm-10.55-29.1-6.42,3.57c-3.54,1.85-5.61,3.93-5.61,7.85,0,6.47,4.47,8.79,7,8.79a6.46,6.46,0,0,0,5-1.85Z" transform="translate(-13.47 -16.39)"/><path d="M644.45,811.27H614.19v-3.93c6.08-.69,6.65-1.28,6.65-8.2V773.83c0-5.78-.46-6.36-5.85-7.51v-3.57a109.65,109.65,0,0,0,20.64-4.4v12.48c5.15-8,9.28-12.25,14-12.25a7,7,0,0,1,7.44,6.53c0,.14,0,.27,0,.4a11.26,11.26,0,0,1-5.84,9.83,3.14,3.14,0,0,1-3.55-.59c-1.95-1.61-3.44-3.46-5.39-3.46-1.72,0-4.58,1.5-6.65,5.89v22c0,6.93.81,7.28,8.83,8.2Z" transform="translate(-13.47 -16.39)"/><path d="M703.72,800.06c-5.27,7.63-13,12.59-20,12.59a24.27,24.27,0,0,1-25.09-23.46c0-.46,0-.92,0-1.37a27.64,27.64,0,0,1,11.69-22.07,33.42,33.42,0,0,1,19.95-7.17,17.85,17.85,0,0,1,10.09,2.78,4.84,4.84,0,0,1,2.17,4.27,7.3,7.3,0,0,1-5.15,6.47,3.53,3.53,0,0,1-2.54-1.27c-4.93-4.16-8.82-6-11.92-6-4.47,0-9.86,4.39-9.86,16.87,0,15.36,11.13,20.33,16,20.33a17,17,0,0,0,12.27-4.85Z" transform="translate(-13.47 -16.39)"/><path d="M706.23,811.27v-3.94c6.19-.81,6.88-1.27,6.88-9.47V775.33c0-7.74-.58-8.2-6-8.89v-3.82a123.4,123.4,0,0,0,20.75-4.16v39.4c0,7.85.45,8.66,7.1,9.47v3.93Zm13.41-59.84a8.38,8.38,0,0,1-8.25-8.21,8.25,8.25,0,0,1,8.3-8.2h.06a8.08,8.08,0,0,1,8.25,7.91v.29a8.25,8.25,0,0,1-8.31,8.2h-.05Z" transform="translate(-13.47 -16.39)"/><path d="M776.84,812.65a10.48,10.48,0,0,1-7.09-2.42,11.56,11.56,0,0,1-3-4.28c-4.35,2.89-10,6.7-12.16,6.7A15.12,15.12,0,0,1,739,798v-.25c0-6.13,2.75-8.9,8.82-11.32,6.77-2.55,15.82-5.32,18.46-7.63v-5.08c0-6-2.18-9.36-7.11-9.36a5.66,5.66,0,0,0-4.59,2.3,22.33,22.33,0,0,0-2.75,7.63,4.54,4.54,0,0,1-4.93,3.93,7,7,0,0,1-6.76-6c0-2.08,1.37-3.58,4-5.43a56.2,56.2,0,0,1,18.34-8.2,20,20,0,0,1,11.81,3.35c4.93,3.47,6.3,8.32,6.3,14.21v20c0,5.54,1.84,6.93,3.67,6.93a8.58,8.58,0,0,0,3.55-.92l1.27,3.92Zm-10.55-29.1-6.42,3.57c-3.54,1.85-5.62,3.93-5.62,7.85,0,6.47,4.48,8.79,7,8.79a6.43,6.43,0,0,0,5-1.85Z" transform="translate(-13.47 -16.39)"/><path d="M861,796.88c-.71,3.51-3.2,12.18-4,14.39H812.89v-3c7.82-.49,8.53-1.07,8.53-7.93V769.15c0-6.87-.88-7.52-7.55-8v-3h27.75v3c-6.94.58-7.83,1.15-7.83,8v31.73c0,4.5.18,6.54,5.06,6.63.18.08,4.27.08,4.63.08,5.07,0,6.41-1,8.54-3.19a33.62,33.62,0,0,0,5.6-8.51Z" transform="translate(-13.47 -16.39)"/><path d="M910.56,796.88c-.71,3.51-3.2,12.18-4,14.39H862.44v-3c7.82-.49,8.53-1.07,8.53-7.93V769.15c0-6.87-.89-7.52-7.56-8v-3h27.75v3c-6.94.58-7.83,1.15-7.83,8v31.73c0,4.5.18,6.54,5.07,6.63.18.08,4.27.08,4.62.08,5.07,0,6.4-1,8.54-3.19a33.92,33.92,0,0,0,5.61-8.51Z" transform="translate(-13.47 -16.39)"/><path d="M938.23,758.11a31.29,31.29,0,0,1,16,3.36,13.42,13.42,0,0,1,6.94,12.26c0,11.86-10.95,16.85-20.46,16.93a23.63,23.63,0,0,1-2.67-.16l-5.16-1.23v11.12c0,6.87.62,7.2,8.36,7.86v3H913v-3c6.67-.74,7.56-1,7.56-7.86V769.15c0-6.87-.89-7.61-7.56-8v-3Zm-5.34,27.72a12.57,12.57,0,0,0,4.71.82c4.09,0,10.76-2.21,10.76-13,0-9.16-5.42-12.18-11.2-12.18a5.79,5.79,0,0,0-3.47.81,3,3,0,0,0-.81,2.54Z" transform="translate(-13.47 -16.39)"/></svg>