<svg xmlns="http://www.w3.org/2000/svg" width="73.434" height="80.851" viewBox="0 0 73.434 80.851"><defs><style>.a{fill:#ffd571;}.b{fill:#fff0ce;}.c{fill:#577590;}</style></defs><g transform="translate(-278.972 -5096.606)"><rect class="a" width="33.588" height="70.097" rx="7" transform="translate(283.292 5104.43) rotate(-7)"/><path class="b" d="M5.111,0H40.16a5.111,5.111,0,0,1,5.111,5.111V26.287A5.111,5.111,0,0,1,40.16,31.4H15.553L9.445,35.2,5.111,31.4A5.111,5.111,0,0,1,0,26.287V5.111A5.111,5.111,0,0,1,5.111,0Z" transform="translate(300.816 5116.112) rotate(-7)"/><g transform="translate(278.972 5101.677) rotate(-7)"><g transform="translate(0 0)"><path class="c" d="M35.15,76.348H6.462A6.469,6.469,0,0,1,0,69.886V6.462A6.469,6.469,0,0,1,6.462,0H35.15a6.469,6.469,0,0,1,6.462,6.462v4.526a1.154,1.154,0,1,1-2.307,0V6.462A4.159,4.159,0,0,0,35.15,2.307H6.462A4.159,4.159,0,0,0,2.307,6.462V69.886a4.16,4.16,0,0,0,4.155,4.155H35.15A4.16,4.16,0,0,0,39.3,69.886V54.3a1.154,1.154,0,1,1,2.307,0V69.886A6.469,6.469,0,0,1,35.15,76.348Z" transform="translate(0 0)"/><path class="c" d="M40.459,2.308H1.154A1.154,1.154,0,0,1,1.154,0h39.3a1.154,1.154,0,0,1,0,2.308Z" transform="translate(0 63.095)"/><path class="c" d="M6.875,2.307H1.154A1.154,1.154,0,1,1,1.154,0H6.875a1.154,1.154,0,1,1,0,2.307Z" transform="translate(16.792 68.32)"/><path class="c" d="M2.013,2.307H1.154A1.154,1.154,0,1,1,1.154,0h.859a1.154,1.154,0,1,1,0,2.307Z" transform="translate(19.223 4.884)"/></g><g transform="translate(18.159 14.936)"><path class="c" d="M10.016,40.516a1.153,1.153,0,0,1-1.154-1.154V35.169A9.562,9.562,0,0,1,0,25.645V9.548A9.559,9.559,0,0,1,9.548,0H39.47a9.559,9.559,0,0,1,9.548,9.548v16.1a9.559,9.559,0,0,1-9.548,9.549H17.6L10.7,40.29A1.156,1.156,0,0,1,10.016,40.516ZM9.548,2.307A7.249,7.249,0,0,0,2.307,9.548v16.1a7.25,7.25,0,0,0,7.241,7.242h.468A1.154,1.154,0,0,1,11.17,34.04v3.035l5.359-3.962a1.154,1.154,0,0,1,.686-.226H39.47a7.249,7.249,0,0,0,7.241-7.242V9.548A7.249,7.249,0,0,0,39.47,2.307Z" transform="translate(0 0)"/><path class="c" d="M12.836,2.308H1.154A1.154,1.154,0,0,1,1.154,0H12.836a1.154,1.154,0,0,1,0,2.308Z" transform="translate(7.832 9.436)"/><path class="c" d="M32.307,2.308H1.154A1.154,1.154,0,0,1,1.154,0H32.307a1.154,1.154,0,0,1,0,2.308Z" transform="translate(7.832 16.057)"/><path class="c" d="M32.307,2.308H1.154A1.154,1.154,0,0,1,1.154,0H32.307a1.154,1.154,0,0,1,0,2.308Z" transform="translate(7.832 22.68)"/></g></g></g></svg>