<svg xmlns="http://www.w3.org/2000/svg" width="29" height="31" viewBox="0 0 29 31"><defs><style>.a{opacity:0.502;}.b{fill:#393e41;}</style></defs><g class="a" transform="translate(-0.055 0.345)"><path class="b" d="M24,31H5a5.005,5.005,0,0,1-5-5V5A5.006,5.006,0,0,1,5,0H24a5.006,5.006,0,0,1,5,5V26A5.005,5.005,0,0,1,24,31ZM18.864,14.094h0a1.986,1.986,0,0,1,1.26.4c.836.469,1.011,1.947,1.013,1.962v8.6H25.5v-8.6a9.035,9.035,0,0,0-.421-2.88,4.891,4.891,0,0,0-1.215-2.027,3.784,3.784,0,0,0-2.5-1.021c-.191-.01-.38-.015-.563-.015a5.823,5.823,0,0,0-3.8,1.109,2.826,2.826,0,0,0-.871,1.109v-2.2H11.84V25.058h4.388v-8.6a2.4,2.4,0,0,1,1.112-1.877A2.726,2.726,0,0,1,18.864,14.094Zm-14-3.586v14.55H9.135V10.508ZM7.781,3.6a2.693,2.693,0,0,0-2.83,2.524,2.692,2.692,0,0,0,2.83,2.523,2.692,2.692,0,0,0,2.83-2.523A2.693,2.693,0,0,0,7.781,3.6Z" transform="translate(0.055 -0.345)"/></g></svg>