<svg xmlns="http://www.w3.org/2000/svg" width="32.842" height="34" viewBox="0 0 32.842 34"><defs><style>.a{opacity:0.502;}.b{fill:#393e41;}</style></defs><g class="a" transform="translate(0)"><path class="b" d="M844.418,779.632H822v33.8h22.416a.732.732,0,0,0,.732-.732v-32.34A.732.732,0,0,0,844.418,779.632ZM833.3,789.6a3.715,3.715,0,1,1-3.715,3.715A3.715,3.715,0,0,1,833.3,789.6Zm-6.985,13.877c0-3.01,3.127-5.45,6.985-5.45s6.985,2.44,6.985,5.45Z" transform="translate(-812.309 -779.632)"/><path class="b" d="M787.154,780.364v2.058h-1.115a.7.7,0,0,0-.7.7v1.951a.7.7,0,0,0,.7.7h1.115v5h-1.115a.7.7,0,0,0-.7.7v1.951a.7.7,0,0,0,.7.7h1.115v5h-1.115a.7.7,0,0,0-.7.7v1.951a.7.7,0,0,0,.7.7h1.115v5h-1.115a.7.7,0,0,0-.7.7v1.951a.7.7,0,0,0,.7.7h1.115V812.9a.732.732,0,0,0,.732.732h5.124v-34h-5.124A.732.732,0,0,0,787.154,780.364Z" transform="translate(-785.338 -779.632)"/></g></svg>