<svg xmlns="http://www.w3.org/2000/svg" width="24.161" height="37.555" viewBox="0 0 24.161 37.555"><defs><style>.a{fill:#60a3ff;}</style></defs><path class="a" d="M593.754,313.5H575.211a2.817,2.817,0,0,0-2.809,2.809v31.935a2.818,2.818,0,0,0,2.809,2.811h18.542a2.816,2.816,0,0,0,2.809-2.809V316.307A2.817,2.817,0,0,0,593.754,313.5Zm-12.237,2.613h5.932a.341.341,0,0,1,0,.681h-5.932a.341.341,0,0,1,0-.681Zm2.966,32.94a1.712,1.712,0,1,1,1.711-1.713A1.711,1.711,0,0,1,584.483,349.051Zm8.969-5H575.513V319.122h17.939Z" transform="translate(-572.402 -313.498)"/></svg>