<svg xmlns="http://www.w3.org/2000/svg" width="89.512" height="84.042" viewBox="0 0 89.512 84.042"><path d="M0,0H22.532a10.8,10.8,0,0,1-10.8,10.8H10.8A10.8,10.8,0,0,1,0,0Z" transform="translate(1.068 34.894)" fill="#ffd571"/><path d="M2546.308,1828.7a10.174,10.174,0,0,0,.617-3.551v-.672h-22.532v.672a10.168,10.168,0,0,0,.617,3.551Z" transform="translate(-2523.325 -1789.579)" fill="#fff"/><path d="M0,0H22.532a10.8,10.8,0,0,1-10.8,10.8H10.8A10.8,10.8,0,0,1,0,0Z" transform="translate(65.912 34.894)" fill="#ffd571"/><path d="M2903.123,1828.7a10.179,10.179,0,0,0,.617-3.551v-.672h-22.532v.672a10.168,10.168,0,0,0,.617,3.551Z" transform="translate(-2815.296 -1789.579)" fill="#fff"/><g transform="translate(5.684 1.09)"><path d="M2591.38,1710.21v-39.487h5.391a11.417,11.417,0,0,0,10.9-8.027l3.521-10.806a6.97,6.97,0,0,1,6.656-4.9h-4.592a6.971,6.971,0,0,0-6.656,4.9l-2.862,9.2a6.746,6.746,0,0,1-6.441,4.742h-5.919v-22.782a4.592,4.592,0,0,1,4.592-4.592H2580a4.592,4.592,0,0,1,4.592,4.592v22.782h-5.387a7.729,7.729,0,0,1-7.38-5.433l-2.647-8.513a6.971,6.971,0,0,0-6.656-4.9h-4.593a6.97,6.97,0,0,1,6.656,4.9l3.521,10.806a11.417,11.417,0,0,0,10.9,8.027h5.583v39.487h-2.255a3.6,3.6,0,0,0-3.6,3.6v1.457h-6.85a4.688,4.688,0,0,0-4.688,4.688v.369h41.874v-.369a4.688,4.688,0,0,0-4.688-4.688h-6.849v-1.457a3.6,3.6,0,0,0-3.6-3.6Z" transform="translate(-2549.792 -1638.463)" fill="#fec82e"/></g><path d="M5.057,0h8.684A5.057,5.057,0,0,1,18.8,5.057v0a0,0,0,0,1,0,0H0a0,0,0,0,1,0,0v0A5.057,5.057,0,0,1,5.057,0Z" transform="translate(34.632 72.838)" fill="#fff"/><g transform="translate(64.843 6.506)"><path d="M2950.39,1697.159a1.09,1.09,0,0,1-1.062-.85l-6.029-26.713a1.091,1.091,0,0,1,2.127-.48l6.029,26.714a1.092,1.092,0,0,1-1.064,1.331Z" transform="translate(-2930.924 -1668.264)" fill="#3d4c6d"/><path d="M2898.683,1739.28a1.091,1.091,0,0,1-1.038-1.425l5.587-17.359a1.091,1.091,0,0,1,2.076.668l-5.588,17.359A1.091,1.091,0,0,1,2898.683,1739.28Z" transform="translate(-2893.547 -1710.385)" fill="#3d4c6d"/><path d="M2888.652,1830.8h-1.979a10.879,10.879,0,0,1-8.056-3.714,12.547,12.547,0,0,1-3.289-8.342,1.09,1.09,0,0,1,1.09-1.09h22.489a1.09,1.09,0,0,1,1.09,1.09,12.55,12.55,0,0,1-3.288,8.342A10.881,10.881,0,0,1,2888.652,1830.8Zm-11.082-10.965c.539,4.792,4.562,8.785,9.1,8.785h1.979c4.542,0,8.564-3.993,9.1-8.785Z" transform="translate(-2875.328 -1790.504)" fill="#3d4c6d"/></g><g transform="translate(0 6.506)"><path d="M2542.232,1697.158a1.091,1.091,0,0,1-1.065-1.331l6.029-26.713a1.09,1.09,0,1,1,2.127.48l-6.029,26.713A1.091,1.091,0,0,1,2542.232,1697.158Z" transform="translate(-2537.029 -1668.264)" fill="#3d4c6d"/><path d="M2595.924,1739.278a1.091,1.091,0,0,1-1.037-.757l-5.588-17.358a1.09,1.09,0,1,1,2.076-.669l5.587,17.359a1.092,1.092,0,0,1-1.038,1.425Z" transform="translate(-2576.392 -1710.384)" fill="#3d4c6d"/><path d="M2531.838,1830.8h-1.979a10.881,10.881,0,0,1-8.057-3.714,12.549,12.549,0,0,1-3.288-8.342,1.09,1.09,0,0,1,1.09-1.09h22.489a1.09,1.09,0,0,1,1.09,1.09,12.545,12.545,0,0,1-3.289,8.342A10.878,10.878,0,0,1,2531.838,1830.8Zm-11.082-10.965c.539,4.792,4.562,8.785,9.1,8.785h1.979c4.542,0,8.564-3.993,9.1-8.785Z" transform="translate(-2518.514 -1790.504)" fill="#3d4c6d"/></g><path d="M2759.976,1638.463" transform="translate(-2716.095 -1637.373)" fill="none" stroke="#3d4c6d" stroke-linecap="round" stroke-linejoin="round" stroke-width="12"/><path d="M2592.389,1662.018h-5.919a1.09,1.09,0,0,1-1.09-1.09v-22.783a5.654,5.654,0,0,1,1.21-3.5h-7.024a5.654,5.654,0,0,1,1.21,3.5v22.783a1.091,1.091,0,0,1-1.091,1.09h-6.111c-3.343,0-6.58-2.608-7.7-6.2l-2.647-8.513a5.853,5.853,0,0,0-5.615-4.134h-12.734a1.09,1.09,0,0,1,0-2.181h12.734a8.024,8.024,0,0,1,7.7,5.667l2.648,8.513c.827,2.661,3.241,4.667,5.615,4.667h5.021v-21.692a3.506,3.506,0,0,0-3.5-3.5,1.09,1.09,0,1,1,0-2.181h15.969a1.09,1.09,0,0,1,0,2.181,3.506,3.506,0,0,0-3.5,3.5v21.692h4.828c2.374,0,4.788-2.006,5.615-4.667l2.647-8.513a8.024,8.024,0,0,1,7.7-5.667h14.51a1.09,1.09,0,0,1,0,2.181h-14.51a5.853,5.853,0,0,0-5.615,4.134l-2.647,8.513C2598.97,1659.411,2595.733,1662.018,2592.389,1662.018Z" transform="translate(-2539.198 -1632.463)" fill="#3d4c6d"/><path d="M2773.732,1744.787a1.09,1.09,0,0,1-1.09-1.09v-39.487a1.09,1.09,0,0,1,1.09-1.091h5.391a10.279,10.279,0,0,0,9.861-7.26l3.526-10.82a8.019,8.019,0,0,1,7.693-5.653,1.09,1.09,0,0,1,0,2.181,5.854,5.854,0,0,0-5.615,4.134l-3.525,10.82a12.446,12.446,0,0,1-11.939,8.779h-4.3v38.4A1.09,1.09,0,0,1,2773.732,1744.787Z" transform="translate(-2726.46 -1670.859)" fill="#3d4c6d"/><path d="M2616.346,1744.787a1.09,1.09,0,0,1-1.09-1.09v-38.4h-4.493a12.451,12.451,0,0,1-11.943-8.793l-3.517-10.792a5.858,5.858,0,0,0-5.619-4.148,1.09,1.09,0,1,1,0-2.181,8.024,8.024,0,0,1,7.7,5.667l3.516,10.792a10.284,10.284,0,0,0,9.865,7.274h5.583a1.091,1.091,0,0,1,1.091,1.091V1743.7A1.09,1.09,0,0,1,2616.346,1744.787Z" transform="translate(-2575.858 -1670.859)" fill="#3d4c6d"/><path d="M2722.975,2034.506h-18.8a1.09,1.09,0,0,1-1.09-1.09v-1.539a4.614,4.614,0,0,1,4.608-4.609h11.762a4.614,4.614,0,0,1,4.608,4.609v1.539A1.091,1.091,0,0,1,2722.975,2034.506Zm-17.708-2.181h16.618v-.448a2.431,2.431,0,0,0-2.428-2.428h-11.762a2.431,2.431,0,0,0-2.428,2.428Z" transform="translate(-2669.544 -1955.52)" fill="#3d4c6d"/><path d="M2682.563,2062.334h-41.874a1.091,1.091,0,0,1-1.09-1.09V2059.7a4.614,4.614,0,0,1,4.609-4.608h34.837a4.613,4.613,0,0,1,4.609,4.608v1.539A1.091,1.091,0,0,1,2682.563,2062.334Zm-40.783-2.181h39.693v-.448a2.431,2.431,0,0,0-2.428-2.428h-34.837a2.43,2.43,0,0,0-2.428,2.428Z" transform="translate(-2617.594 -1978.292)" fill="#3d4c6d"/><path d="M2902.943,1845.52h-20.4a1.09,1.09,0,1,1,0-2.181h20.4a1.09,1.09,0,1,1,0,2.181Z" transform="translate(-2815.495 -1805.017)" fill="#3d4c6d"/><path d="M2545.748,1845.52h-20.4a1.09,1.09,0,1,1,0-2.181h20.4a1.09,1.09,0,1,1,0,2.181Z" transform="translate(-2523.214 -1805.017)" fill="#3d4c6d"/></svg>