<svg id="Layer_6" data-name="Layer 6" xmlns="http://www.w3.org/2000/svg" width="48.53" height="41.8" viewBox="0 0 48.53 41.8"><defs><style>.cls-1{fill:#fff;}</style></defs><path class="cls-1" d="M39.93,11H10a1.1,1.1,0,1,0,0,2.19h30a1.1,1.1,0,0,0,0-2.19Z" transform="translate(-0.77 -3.2)"/><path class="cls-1" d="M39.93,17.92H10a1.1,1.1,0,1,0,0,2.19h30a1.1,1.1,0,0,0,0-2.19Z" transform="translate(-0.77 -3.2)"/><path class="cls-1" d="M24.94,24.83H10A1.1,1.1,0,1,0,10,27h15a1.1,1.1,0,1,0,0-2.19Z" transform="translate(-0.77 -3.2)"/><path class="cls-1" d="M42.24,3.2H7.84A7.07,7.07,0,0,0,.77,10.26V28a7.07,7.07,0,0,0,7.07,7.06h.25L6.67,43a1.74,1.74,0,0,0,2.91,1.57l9.69-9.2a.9.9,0,0,1,.58-.23H42.24A7.07,7.07,0,0,0,49.3,28V10.26A7.07,7.07,0,0,0,42.24,3.2ZM47.11,28a4.87,4.87,0,0,1-4.87,4.87H19.85a3,3,0,0,0-2.08.84L9.07,42l1.23-6.82A1.93,1.93,0,0,0,8.41,32.9H7.84A4.88,4.88,0,0,1,3,28V10.26A4.89,4.89,0,0,1,7.84,5.38h34.4a4.88,4.88,0,0,1,4.87,4.88Z" transform="translate(-0.77 -3.2)"/></svg>