<svg xmlns="http://www.w3.org/2000/svg" width="47.53" height="38.63" viewBox="0 0 47.53 38.63"><defs><style>.cls-1{fill:#032dc1;}</style></defs><g id="Layer_2" data-name="Layer 2"><g id="twitter"><path class="cls-1" d="M42.67,9.62c.61,13.72-9.62,29-27.72,29A27.56,27.56,0,0,1,0,34.25a19.64,19.64,0,0,0,14.44-4,9.76,9.76,0,0,1-9.11-6.77,9.69,9.69,0,0,0,4.4-.17,9.76,9.76,0,0,1-7.82-9.68A9.73,9.73,0,0,0,6.33,14.8a9.74,9.74,0,0,1-3-13A27.64,27.64,0,0,0,23.41,12,9.76,9.76,0,0,1,40,3.08,19.59,19.59,0,0,0,46.22.71a9.82,9.82,0,0,1-4.29,5.4,19.53,19.53,0,0,0,5.6-1.54,19.62,19.62,0,0,1-4.86,5Z"/></g></g></svg>