<svg xmlns="http://www.w3.org/2000/svg" width="49.27" height="35.6" viewBox="0 0 49.27 35.6"><defs><style>.cls-1{fill:#032dc1;}</style></defs><g id="Layer_2" data-name="Layer 2"><g id="youtube"><path class="cls-1" d="M48.81,6.72c-.42-3.6-1.28-4.64-1.89-5.12-1-.76-2.74-1-5.1-1.19C38,.15,31.6,0,24.64,0S11.25.15,7.45.41C5.1.57,3.32.84,2.35,1.6,1.74,2.08.88,3.12.46,6.72a134.4,134.4,0,0,0,0,22.16C.88,32.47,1.74,33.52,2.35,34c1,.76,2.75,1,5.1,1.19,3.8.25,10.22.41,17.19.41s13.38-.16,17.18-.41C44.18,35,46,34.76,46.92,34c.61-.48,1.47-1.53,1.89-5.12a134.4,134.4,0,0,0,0-22.16ZM18.69,25.55h0V10.05L33.55,17.8,18.69,25.55Z"/></g></g></svg>